<svg version="1.1" xmlns="http://www.w3.org/2000/svg" width="32" height="32" viewBox="0 0 32 32">
<path opacity="0.8" fill="#000" d="M24.651 11.002c0-0.515-0.418-0.933-0.933-0.933h-15.316c-0.515 0-0.933 0.418-0.933 0.933s0.418 0.933 0.933 0.933h15.316c0.515 0 0.933-0.418 0.933-0.933zM7.712 22.913c0.365 0.365 0.955 0.365 1.32 0l6.406-6.406c0.313-0.312 0.819-0.312 1.131 0l6.466 6.466c0.365 0.365 0.955 0.365 1.32 0s0.365-0.955 0-1.32l-6.466-6.466c-1.041-1.041-2.73-1.041-3.771 0l-6.406 6.406c-0.364 0.364-0.364 0.955 0 1.32z"></path>
</svg>
