<svg version="1.1" xmlns="http://www.w3.org/2000/svg" width="24" height="24" viewBox="0 0 24 24">
<path fill="#fff" d="M6.585 18h4.635c0.308 0 0.548-0.24 0.548-0.547s-0.24-0.547-0.548-0.547h-4.635c-0.082 0-0.158-0.008-0.232-0.030-0.053-0.008-0.105-0.030-0.158-0.053-0.060-0.023-0.105-0.045-0.158-0.082-0.060-0.038-0.113-0.083-0.165-0.135-0.053-0.045-0.097-0.105-0.135-0.165-0.030-0.045-0.060-0.098-0.083-0.15s-0.037-0.113-0.053-0.165c-0.015-0.075-0.022-0.15-0.022-0.232v-7.793c0-0.082 0.008-0.158 0.022-0.232 0.015-0.053 0.030-0.113 0.053-0.165s0.053-0.105 0.083-0.15c0.038-0.060 0.083-0.12 0.135-0.165 0.053-0.053 0.105-0.098 0.165-0.135 0.053-0.038 0.098-0.060 0.158-0.082 0.053-0.022 0.105-0.045 0.158-0.053 0.075-0.022 0.15-0.030 0.232-0.030h10.822c0.083 0 0.158 0.007 0.233 0.030 0.052 0.007 0.105 0.030 0.157 0.053 0.060 0.022 0.105 0.045 0.158 0.082 0.060 0.037 0.112 0.082 0.165 0.135 0.052 0.045 0.098 0.105 0.135 0.165 0.030 0.045 0.060 0.098 0.082 0.15s0.038 0.113 0.053 0.165c0.015 0.075 0.023 0.15 0.023 0.232v3.12c0 0.3 0.24 0.54 0.54 0.54 0.307 0 0.547-0.24 0.547-0.54v-3.12c0-0.15-0.023-0.308-0.053-0.45-0.030-0.128-0.067-0.248-0.112-0.368-0.053-0.12-0.112-0.233-0.18-0.345-0.082-0.112-0.172-0.225-0.27-0.322-0.098-0.105-0.21-0.195-0.322-0.27s-0.225-0.135-0.338-0.18c-0.12-0.053-0.247-0.090-0.367-0.12-0.15-0.030-0.3-0.045-0.45-0.045h-10.822c-0.15 0-0.3 0.015-0.45 0.045-0.12 0.030-0.247 0.067-0.367 0.12-0.113 0.045-0.225 0.105-0.338 0.18s-0.225 0.165-0.322 0.27c-0.098 0.098-0.188 0.21-0.262 0.322s-0.135 0.225-0.188 0.345c-0.045 0.12-0.083 0.24-0.113 0.368-0.030 0.142-0.045 0.3-0.045 0.45v7.793c0 0.15 0.015 0.307 0.045 0.45 0.030 0.128 0.067 0.247 0.113 0.367 0.053 0.12 0.112 0.232 0.188 0.345s0.165 0.225 0.262 0.323c0.098 0.105 0.21 0.195 0.322 0.27s0.225 0.135 0.338 0.18c0.12 0.053 0.248 0.090 0.367 0.12 0.15 0.030 0.3 0.053 0.45 0.053z"></path>
<path fill="#fff" d="M11.647 13.447l-0.749-0.434c-0.265 0.41-0.619 0.614-1.061 0.614-0.41 0-0.742-0.149-0.994-0.448-0.253-0.301-0.379-0.713-0.379-1.237 0-0.518 0.127-0.926 0.379-1.225 0.253-0.301 0.584-0.45 0.994-0.45 0.442 0 0.796 0.201 1.061 0.605l0.749-0.434c-0.171-0.354-0.413-0.62-0.726-0.795-0.311-0.177-0.669-0.266-1.073-0.266-0.442 0-0.847 0.104-1.214 0.312-0.365 0.208-0.656 0.506-0.872 0.895-0.214 0.389-0.322 0.841-0.322 1.359s0.107 0.971 0.322 1.359c0.216 0.387 0.506 0.686 0.872 0.895 0.367 0.208 0.771 0.312 1.214 0.312 0.404 0 0.762-0.089 1.073-0.266 0.313-0.177 0.555-0.442 0.726-0.795zM12.23 12.848c-0.086-0.276-0.129-0.579-0.129-0.907 0-0.518 0.107-0.971 0.321-1.359 0.216-0.389 0.506-0.687 0.872-0.895 0.367-0.208 0.772-0.312 1.214-0.312 0.404 0 0.761 0.089 1.073 0.266 0.313 0.176 0.555 0.441 0.726 0.795l-0.749 0.434c-0.265-0.404-0.619-0.605-1.061-0.605-0.41 0-0.742 0.15-0.994 0.45-0.232 0.275-0.358 0.642-0.376 1.102-0.353 0.291-0.656 0.639-0.895 1.031z"></path>
<path fill="#fff" d="M16.852 12.075c-0.24-0.053-0.48-0.075-0.727-0.075-0.255 0-0.495 0.023-0.735 0.075-0.195 0.045-0.39 0.105-0.585 0.188-0.188 0.082-0.367 0.18-0.54 0.293-0.188 0.12-0.367 0.263-0.533 0.428s-0.307 0.345-0.427 0.533c-0.113 0.173-0.21 0.352-0.293 0.54-0.082 0.195-0.143 0.39-0.188 0.585-0.053 0.24-0.075 0.48-0.075 0.735 0 0.247 0.023 0.487 0.075 0.727 0.045 0.195 0.105 0.39 0.188 0.585 0.082 0.188 0.18 0.367 0.293 0.54 0.12 0.188 0.262 0.367 0.427 0.532 0.165 0.158 0.345 0.308 0.533 0.428 0.172 0.112 0.352 0.21 0.54 0.293s0.383 0.142 0.577 0.188c0.24 0.052 0.487 0.075 0.742 0.075 0.247 0 0.488-0.023 0.727-0.075 0.195-0.045 0.39-0.105 0.585-0.188 0.188-0.082 0.367-0.18 0.54-0.293 0.188-0.12 0.367-0.27 0.533-0.428 0.165-0.165 0.307-0.345 0.427-0.532 0.113-0.173 0.21-0.352 0.293-0.54 0.082-0.195 0.143-0.39 0.188-0.585 0.053-0.24 0.082-0.48 0.082-0.727 0-0.255-0.030-0.495-0.082-0.735-0.045-0.195-0.105-0.39-0.188-0.585-0.082-0.188-0.18-0.367-0.293-0.54-0.12-0.188-0.262-0.367-0.427-0.533s-0.345-0.308-0.533-0.428c-0.172-0.112-0.352-0.21-0.54-0.293-0.195-0.082-0.39-0.143-0.585-0.188zM16.125 13.043c0.172 0 0.352 0.023 0.518 0.060 0.135 0.030 0.262 0.075 0.383 0.128 0.128 0.053 0.255 0.12 0.367 0.195 0.135 0.082 0.255 0.188 0.375 0.3 0.112 0.12 0.217 0.24 0.3 0.375 0.075 0.112 0.143 0.24 0.195 0.367 0.052 0.12 0.097 0.247 0.127 0.383 0.038 0.165 0.060 0.345 0.060 0.525 0 0.172-0.023 0.345-0.060 0.518-0.030 0.128-0.075 0.255-0.127 0.383s-0.12 0.255-0.195 0.367c-0.082 0.135-0.188 0.255-0.3 0.375-0.12 0.112-0.24 0.217-0.375 0.3-0.113 0.075-0.24 0.143-0.367 0.195-0.12 0.052-0.247 0.097-0.383 0.127-0.165 0.038-0.345 0.053-0.518 0.053-0.18 0-0.352-0.015-0.518-0.053-0.135-0.030-0.262-0.075-0.39-0.127s-0.255-0.12-0.367-0.195c-0.135-0.082-0.255-0.188-0.375-0.3-0.113-0.12-0.218-0.24-0.3-0.375-0.075-0.113-0.143-0.24-0.195-0.367s-0.098-0.255-0.128-0.383c-0.038-0.173-0.060-0.345-0.060-0.518 0-0.18 0.023-0.36 0.060-0.525 0.030-0.135 0.075-0.263 0.128-0.383 0.053-0.128 0.12-0.255 0.195-0.367 0.082-0.135 0.188-0.255 0.3-0.375 0.12-0.113 0.24-0.218 0.375-0.3 0.112-0.075 0.24-0.143 0.367-0.195 0.12-0.053 0.247-0.098 0.383-0.128 0.165-0.038 0.345-0.060 0.525-0.060z"></path>
<path fill="#fff" d="M17.138 15.855h-1.8c-0.3 0-0.525-0.225-0.525-0.518 0-0.3 0.225-0.525 0.525-0.525h1.8c0.292 0 0.517 0.225 0.517 0.525 0 0.293-0.225 0.518-0.517 0.518z"></path>
</svg>
