<svg version="1.1" xmlns="http://www.w3.org/2000/svg" width="32" height="32" viewBox="0 0 32 32">
<path opacity="0.8" fill="#000" d="M15.9 4.624c6.283 0 11.376 5.093 11.376 11.376s-5.093 11.376-11.376 11.376c-5.455 0-10.113-3.868-11.159-9.155-0.119-0.598 0.432-1.111 1.020-0.952 0.622 0.169 1.27 0.255 1.93 0.255 4.080 0 7.389-3.308 7.389-7.389 0-1.497-0.445-2.925-1.266-4.137-0.341-0.504-0.034-1.192 0.57-1.273 0.499-0.068 1.005-0.102 1.518-0.102zM15.906 6.495l-0.049 0.001 0.067 0.139c0.461 1.016 0.727 2.119 0.775 3.258l0.008 0.382c0 4.87-3.948 8.818-8.818 8.818-0.262 0-0.523-0.011-0.782-0.034l-0.213-0.024 0.087 0.249c1.314 3.577 4.698 6.094 8.621 6.218l0.303 0.005c5.25 0 9.505-4.256 9.505-9.505s-4.255-9.505-9.505-9.505z"></path>
</svg>
