<svg version="1.1" xmlns="http://www.w3.org/2000/svg" width="32" height="32" viewBox="0 0 32 32">
<path d="M30.532 15.949c0.028 3.085-0.952 6.096-2.792 8.573-1.772 2.475-4.285 4.321-7.177 5.271-0.257 0.072-0.533 0.021-0.751-0.136-0.156-0.148-0.24-0.357-0.229-0.573v-4c0.084-1.001-0.277-1.988-0.989-2.697 0.653-0.064 1.3-0.176 1.937-0.333 0.625-0.168 1.224-0.42 1.781-0.751 0.584-0.319 1.103-0.743 1.531-1.251 0.471-0.595 0.824-1.273 1.041-2 0.276-0.929 0.409-1.895 0.396-2.864 0.032-1.451-0.511-2.855-1.511-3.907 0.469-1.26 0.417-2.655-0.145-3.875-0.52-0.095-1.056-0.021-1.531 0.208-0.609 0.219-1.196 0.499-1.751 0.833l-0.719 0.448c-2.385-0.667-4.907-0.667-7.292 0-0.208-0.145-0.469-0.303-0.803-0.511-0.519-0.303-1.063-0.56-1.625-0.771-0.504-0.256-1.076-0.347-1.636-0.26-0.561 1.232-0.611 2.637-0.136 3.907-0.985 1.068-1.523 2.473-1.5 3.927-0.015 0.963 0.119 1.921 0.396 2.844 0.227 0.723 0.579 1.4 1.041 2 0.419 0.523 0.94 0.955 1.531 1.271 0.564 0.315 1.161 0.567 1.781 0.751 0.64 0.159 1.292 0.271 1.948 0.333-0.545 0.513-0.88 1.212-0.937 1.959-0.275 0.131-0.565 0.221-0.864 0.271-0.344 0.064-0.692 0.096-1.041 0.093-0.479 0.003-0.945-0.147-1.333-0.427-0.432-0.313-0.788-0.719-1.041-1.188-0.229-0.392-0.543-0.731-0.916-0.989-0.279-0.213-0.597-0.369-0.937-0.459h-0.375c-0.188-0.011-0.376 0.017-0.552 0.084-0.104 0.063-0.136 0.136-0.093 0.219 0.049 0.093 0.109 0.18 0.177 0.26 0.076 0.088 0.159 0.168 0.251 0.24l0.136 0.084c0.327 0.176 0.612 0.421 0.833 0.719 0.232 0.297 0.432 0.619 0.593 0.959l0.188 0.437c0.148 0.469 0.439 0.881 0.833 1.177 0.375 0.272 0.805 0.457 1.26 0.541 0.432 0.091 0.872 0.136 1.312 0.136 0.349 0.007 0.697-0.019 1.041-0.073l0.437-0.073v2.729c0.004 0.219-0.087 0.428-0.251 0.573-0.22 0.156-0.5 0.205-0.76 0.136-2.883-0.961-5.383-2.82-7.136-5.303-1.849-2.46-2.831-5.464-2.792-8.541-0.015-2.563 0.661-5.081 1.959-7.292 1.273-2.219 3.115-4.060 5.333-5.333 2.211-1.297 4.729-1.973 7.292-1.959 2.563-0.015 5.081 0.661 7.292 1.959 2.219 1.273 4.060 3.115 5.333 5.333 1.297 2.209 1.975 4.729 1.959 7.292z"></path>
</svg>
